<?xml version="1.0" encoding="UTF-8" standalone="no"?>
<!-- Created with Inkscape (http://www.inkscape.org/) -->

<svg
   width="150"
   height="20"
   viewBox="0 0 39.6875 5.291666"
   version="1.1"
   id="svg1"
   inkscape:version="1.3.2 (091e20e, 2023-11-25)"
   sodipodi:docname="labslogo.svg"
   xmlns:inkscape="http://www.inkscape.org/namespaces/inkscape"
   xmlns:sodipodi="http://sodipodi.sourceforge.net/DTD/sodipodi-0.dtd"
   xmlns="http://www.w3.org/2000/svg"
   xmlns:svg="http://www.w3.org/2000/svg">
  <sodipodi:namedview
     id="namedview1"
     pagecolor="#ffffff"
     bordercolor="#000000"
     borderopacity="0.25"
     inkscape:showpageshadow="2"
     inkscape:pageopacity="0.0"
     inkscape:pagecheckerboard="0"
     inkscape:deskcolor="#d1d1d1"
     inkscape:document-units="mm"
     inkscape:zoom="13.455443"
     inkscape:cx="27.015089"
     inkscape:cy="11.593821"
     inkscape:window-width="1584"
     inkscape:window-height="1017"
     inkscape:window-x="0"
     inkscape:window-y="44"
     inkscape:window-maximized="0"
     inkscape:current-layer="text1" />
  <defs
     id="defs1">
    <rect
       x="16.052982"
       y="16.944815"
       width="309.76312"
       height="82.940414"
       id="rect1" />
  </defs>
  <g
     inkscape:label="Layer 1"
     inkscape:groupmode="layer"
     id="layer1">
    <g
       id="text1"
       style="font-size:26.6667px;font-family:Montserrat;-inkscape-font-specification:Montserrat;white-space:pre;fill:#44aa00"
       transform="matrix(0.26458333,0,0,0.26458333,-4.9552436,-5.8990995)"
       aria-label="BORGLABS">
      <path
         style="fill:#b3b3b3"
         d="m 19.092738,41.454504 v -18.66669 h 8.053344 q 3.120004,0 4.826672,1.253335 1.733336,1.253335 1.733336,3.546671 0,1.520002 -0.720001,2.560003 -0.693334,1.040001 -1.920002,1.573335 -1.200002,0.533334 -2.640004,0.533334 l 0.453334,-0.64 q 1.786669,0 3.066671,0.56 1.306668,0.533334 2.026669,1.626669 0.720001,1.066668 0.720001,2.66667 0,2.373336 -1.760002,3.680005 -1.733336,1.306668 -5.25334,1.306668 z m 1.973336,-1.626669 h 6.586675 q 2.453336,0 3.760005,-0.826667 1.306668,-0.853335 1.306668,-2.693337 0,-1.813336 -1.306668,-2.640004 -1.306669,-0.853334 -3.760005,-0.853334 H 20.85274 v -1.626669 h 6.160008 q 2.240003,0 3.466671,-0.853334 1.253335,-0.853334 1.253335,-2.533337 0,-1.706668 -1.253335,-2.533336 -1.226668,-0.853335 -3.466671,-0.853335 h -5.946674 z m 26.293358,1.786669 q -2.106669,0 -3.920005,-0.693334 -1.786669,-0.720001 -3.120004,-2.000003 -1.306668,-1.306668 -2.053336,-3.013337 -0.72,-1.733335 -0.72,-3.786671 0,-2.053336 0.72,-3.760005 0.746668,-1.733335 2.053336,-3.013337 1.333335,-1.306668 3.120004,-2.000003 1.786669,-0.72 3.920005,-0.72 2.10667,0 3.893339,0.72 1.786668,0.693335 3.093337,1.973336 1.333335,1.280002 2.053336,3.013337 0.746667,1.733336 0.746667,3.786672 0,2.053336 -0.746667,3.786671 -0.720001,1.733336 -2.053336,3.013337 -1.306669,1.280002 -3.093337,2.000003 -1.786669,0.693334 -3.893339,0.693334 z m 0,-1.760002 q 1.680002,0 3.093338,-0.560001 1.440001,-0.586667 2.480003,-1.626668 1.066668,-1.066668 1.653335,-2.453337 0.586667,-1.413335 0.586667,-3.093337 0,-1.680002 -0.586667,-3.066671 -0.586667,-1.413335 -1.653335,-2.453336 -1.040002,-1.066668 -2.480003,-1.626669 -1.413336,-0.586667 -3.093338,-0.586667 -1.680002,0 -3.120004,0.586667 -1.440002,0.560001 -2.50667,1.626669 -1.040001,1.040001 -1.653335,2.453336 -0.586667,1.386669 -0.586667,3.066671 0,1.653335 0.586667,3.06667 0.613334,1.413336 1.653335,2.480004 1.066668,1.040001 2.50667,1.626668 1.440002,0.560001 3.120004,0.560001 z m 14.213371,1.600002 v -18.66669 h 6.986675 q 2.373336,0 4.080005,0.773334 1.706669,0.746668 2.613337,2.186669 0.933334,1.413336 0.933334,3.440005 0,1.973336 -0.933334,3.413337 -0.906668,1.413336 -2.613337,2.18667 -1.706669,0.746668 -4.080005,0.746668 h -5.893341 l 0.880001,-0.906668 v 6.826675 z m 12.746682,0 -4.800006,-6.773342 h 2.133336 l 4.826673,6.773342 z M 63.546138,34.787829 62.666137,33.854494 h 5.840008 q 2.800003,0 4.240005,-1.226668 1.466669,-1.226668 1.466669,-3.440004 0,-2.240003 -1.466669,-3.466671 -1.440002,-1.226668 -4.240005,-1.226668 h -5.840008 l 0.880001,-0.933335 z m 25.493356,6.826675 q -2.133336,0 -3.946672,-0.693334 -1.786669,-0.720001 -3.120004,-2.000003 -1.306668,-1.280001 -2.053336,-3.013337 -0.720001,-1.733335 -0.720001,-3.786671 0,-2.053336 0.720001,-3.786672 0.746668,-1.733335 2.080003,-3.013337 1.333335,-1.280001 3.120004,-1.973336 1.813335,-0.72 3.946671,-0.72 2.133336,0 3.893339,0.666667 1.786669,0.666668 3.040003,2.026669 l -1.226668,1.253335 q -1.173335,-1.173335 -2.58667,-1.680002 -1.413335,-0.506667 -3.040004,-0.506667 -1.733335,0 -3.200004,0.586667 -1.440001,0.560001 -2.533336,1.626669 -1.066668,1.040001 -1.680002,2.453336 -0.586668,1.386669 -0.586668,3.066671 0,1.653335 0.586668,3.06667 0.613334,1.413336 1.680002,2.480004 1.093335,1.040001 2.533336,1.626668 1.466669,0.560001 3.173338,0.560001 1.600002,0 3.013337,-0.480001 1.440002,-0.48 2.640003,-1.626668 l 1.120002,1.493335 q -1.333335,1.173335 -3.120004,1.786669 -1.786669,0.586667 -3.733338,0.586667 z M 93.9995,39.001168 v -6.880009 h 1.893336 v 7.120009 z"
         id="path1" />
      <path
         d="m 101.4662,41.454504 v -18.66669 h 1.97333 v 16.960021 h 10.45335 v 1.706669 z m 12.72003,0 8.53334,-18.66669 h 1.94667 l 8.53335,18.66669 h -2.08001 l -7.84001,-17.520022 h 0.80001 l -7.84001,17.520022 z m 3.36,-4.986673 0.58667,-1.600002 h 10.85335 l 0.58667,1.600002 z m 18.74672,4.986673 v -18.66669 h 8.05334 q 3.12001,0 4.82668,1.253335 1.73333,1.253335 1.73333,3.546671 0,1.520002 -0.72,2.560003 -0.69333,1.040001 -1.92,1.573335 -1.2,0.533334 -2.64001,0.533334 l 0.45334,-0.64 q 1.78667,0 3.06667,0.56 1.30667,0.533334 2.02667,1.626669 0.72,1.066668 0.72,2.66667 0,2.373336 -1.76,3.680005 -1.73334,1.306668 -5.25334,1.306668 z m 1.97333,-1.626669 h 6.58668 q 2.45334,0 3.76,-0.826667 1.30667,-0.853335 1.30667,-2.693337 0,-1.813336 -1.30667,-2.640004 -1.30666,-0.853334 -3.76,-0.853334 h -6.80001 v -1.626669 h 6.16001 q 2.24,0 3.46667,-0.853334 1.25333,-0.853334 1.25333,-2.533337 0,-1.706668 -1.25333,-2.533336 -1.22667,-0.853335 -3.46667,-0.853335 h -5.94668 z m 23.28003,1.786669 q -2.08,0 -4,-0.666667 -1.89334,-0.693335 -2.93334,-1.760003 l 0.77333,-1.520001 q 0.98667,0.960001 2.64001,1.626668 1.68,0.640001 3.52,0.640001 1.76,0 2.85334,-0.426667 1.12,-0.453334 1.62667,-1.200002 0.53333,-0.746667 0.53333,-1.653335 0,-1.093335 -0.64,-1.760002 -0.61333,-0.666668 -1.62667,-1.040002 -1.01333,-0.4 -2.24,-0.693334 -1.22667,-0.293334 -2.45334,-0.613334 -1.22667,-0.346667 -2.26667,-0.906668 -1.01333,-0.56 -1.65333,-1.466668 -0.61334,-0.933335 -0.61334,-2.42667 0,-1.386668 0.72,-2.533337 0.74667,-1.173334 2.26667,-1.866669 1.52001,-0.72 3.89334,-0.72 1.57334,0 3.12001,0.453333 1.54666,0.426668 2.66667,1.200002 l -0.66667,1.573335 q -1.2,-0.800001 -2.56,-1.173335 -1.33334,-0.373333 -2.58667,-0.373333 -1.68001,0 -2.77334,0.453334 -1.09334,0.453333 -1.62667,1.226668 -0.50667,0.746667 -0.50667,1.706669 0,1.093334 0.61334,1.760002 0.64,0.666667 1.65333,1.040001 1.04,0.373334 2.26667,0.666668 1.22667,0.293333 2.42667,0.64 1.22667,0.346668 2.24,0.906668 1.04001,0.533334 1.65334,1.440002 0.64,0.906668 0.64,2.373336 0,1.360002 -0.74667,2.533337 -0.74667,1.146668 -2.29333,1.866669 -1.52001,0.693334 -3.92001,0.693334 z"
         id="path2" />
    </g>
  </g>
</svg>
